<svg width="24" height="18" viewBox="0 0 24 18" fill="none" xmlns="http://www.w3.org/2000/svg">
<g clip-path="url(#clip0_2730_26369)">
<path d="M0 0H24V18H0" fill="#BD3D44"/>
<path d="M0 2.07373H24H0ZM0 4.83748H24H0ZM0 7.61248H24H0ZM0 10.3875H24H0ZM0 13.1625H24H0ZM0 15.9375H24H0Z" fill="black"/>
<path d="M0 1.37988V2.76738H24V1.37988H0ZM0 4.14363V5.53113H24V4.14363H0ZM0 6.91863V8.30613H24V6.91863H0ZM0 9.69363V11.0811H24V9.69363H0ZM0 12.4686V13.8561H24V12.4686H0ZM0 15.2436V16.6311H24V15.2436H0Z" fill="white"/>
<path d="M0 0H13.68V9.69375H0" fill="#192F5D"/>
<path d="M12.5246 8.1751L12.8621 9.1876L11.9996 8.5501H13.0496L12.1871 9.1876L12.5246 8.1751ZM10.2746 8.1751L10.6121 9.1876L9.74961 8.5501H10.7996L9.93711 9.1876L10.2746 8.1751ZM7.98711 8.1751L8.32461 9.1876L7.46211 8.5501H8.51211L7.64961 9.1876L7.98711 8.1751ZM5.69961 8.1751L6.03711 9.1876L5.17461 8.5501H6.22461L5.36211 9.1876L5.69961 8.1751ZM3.41211 8.1751L3.74961 9.1876L2.88711 8.5501H3.93711L3.07461 9.1876L3.41211 8.1751ZM1.12461 8.1751L1.46211 9.1876L0.599609 8.5501H1.64961L0.787109 9.1876L1.12461 8.1751ZM11.3996 7.2001L11.7371 8.2126L10.8746 7.5751H11.9246L11.0621 8.2126L11.3996 7.2001ZM9.11211 7.2001L9.44961 8.2126L8.58711 7.5751H9.63711L8.77461 8.2126L9.11211 7.2001ZM6.86211 7.2001L7.19961 8.2126L6.33711 7.5751H7.38711L6.52461 8.2126L6.86211 7.2001ZM4.57461 7.2001L4.91211 8.2126L4.04961 7.5751H5.09961L4.23711 8.2126L4.57461 7.2001ZM2.28711 7.2001L2.62461 8.2126L1.76211 7.5751H2.81211L1.94961 8.2126L2.28711 7.2001ZM12.5246 6.2251L12.8621 7.2376L11.9996 6.6001H13.0496L12.1871 7.2376L12.5246 6.2251ZM10.2746 6.2251L10.6121 7.2376L9.74961 6.6001H10.7996L9.93711 7.2376L10.2746 6.2251ZM7.98711 6.2251L8.32461 7.2376L7.46211 6.6001H8.51211L7.64961 7.2376L7.98711 6.2251ZM5.69961 6.2251L6.03711 7.2376L5.17461 6.6001H6.22461L5.36211 7.2376L5.69961 6.2251ZM3.41211 6.2251L3.74961 7.2376L2.88711 6.6001H3.93711L3.07461 7.2376L3.41211 6.2251ZM1.12461 6.2251L1.46211 7.2376L0.599609 6.6001H1.64961L0.787109 7.2376L1.12461 6.2251ZM11.3996 5.2876L11.7371 6.3001L10.8746 5.6626H11.9246L11.0621 6.3001L11.3996 5.2876ZM9.11211 5.2876L9.44961 6.3001L8.58711 5.6626H9.63711L8.77461 6.3001L9.11211 5.2876ZM6.86211 5.2876L7.19961 6.3001L6.33711 5.6626H7.38711L6.52461 6.3001L6.86211 5.2876ZM4.57461 5.2876L4.91211 6.3001L4.04961 5.6626H5.09961L4.23711 6.3001L4.57461 5.2876ZM2.28711 5.2876L2.62461 6.3001L1.76211 5.6626H2.81211L1.94961 6.3001L2.28711 5.2876ZM12.5246 4.3126L12.8621 5.3251L11.9996 4.6876H13.0496L12.1871 5.3251L12.5246 4.3126ZM10.2746 4.3126L10.6121 5.3251L9.74961 4.6876H10.7996L9.93711 5.3251L10.2746 4.3126ZM7.98711 4.3126L8.32461 5.3251L7.46211 4.6876H8.51211L7.64961 5.3251L7.98711 4.3126ZM5.69961 4.3126L6.03711 5.3251L5.17461 4.6876H6.22461L5.36211 5.3251L5.69961 4.3126ZM3.41211 4.3126L3.74961 5.3251L2.88711 4.6876H3.93711L3.07461 5.3251L3.41211 4.3126ZM1.12461 4.3126L1.46211 5.3251L0.599609 4.6876H1.64961L0.787109 5.3251L1.12461 4.3126ZM11.3996 3.3376L11.7371 4.3501L10.8746 3.7126H11.9246L11.0621 4.3501L11.3996 3.3376ZM9.11211 3.3376L9.44961 4.3501L8.58711 3.7126H9.63711L8.77461 4.3501L9.11211 3.3376ZM6.86211 3.3376L7.19961 4.3501L6.33711 3.7126H7.38711L6.52461 4.3501L6.86211 3.3376ZM4.57461 3.3376L4.91211 4.3501L4.04961 3.7126H5.09961L4.23711 4.3501L4.57461 3.3376ZM2.28711 3.3376L2.62461 4.3501L1.76211 3.7126H2.81211L1.94961 4.3501L2.28711 3.3376ZM12.5246 2.3626L12.8621 3.3751L11.9996 2.7376H13.0496L12.1871 3.3751L12.5246 2.3626ZM10.2746 2.3626L10.6121 3.3751L9.74961 2.7376H10.7996L9.93711 3.3751L10.2746 2.3626ZM7.98711 2.3626L8.32461 3.3751L7.46211 2.7376H8.51211L7.64961 3.3751L7.98711 2.3626ZM5.69961 2.3626L6.03711 3.3751L5.17461 2.7376H6.22461L5.36211 3.3751L5.69961 2.3626ZM3.41211 2.3626L3.74961 3.3751L2.88711 2.7376H3.93711L3.07461 3.3751L3.41211 2.3626ZM1.12461 2.3626L1.46211 3.3751L0.599609 2.7376H1.64961L0.787109 3.3751L1.12461 2.3626ZM11.3996 1.3876L11.7371 2.4001L10.8746 1.7626H11.9246L11.0621 2.4001L11.3996 1.3876ZM9.11211 1.3876L9.44961 2.4001L8.58711 1.7626H9.63711L8.77461 2.4001L9.11211 1.3876ZM6.86211 1.3876L7.19961 2.4001L6.33711 1.7626H7.38711L6.52461 2.4001L6.86211 1.3876ZM4.57461 1.3876L4.91211 2.4001L4.04961 1.7626H5.09961L4.23711 2.4001L4.57461 1.3876ZM2.28711 1.3876L2.62461 2.4001L1.76211 1.7626H2.81211L1.94961 2.4001L2.28711 1.3876ZM12.5246 0.412598L12.8621 1.4251L11.9996 0.787598H13.0496L12.1871 1.4251L12.5246 0.412598ZM10.2746 0.412598L10.6121 1.4251L9.74961 0.787598H10.7996L9.93711 1.4251L10.2746 0.412598ZM7.98711 0.412598L8.32461 1.4251L7.46211 0.787598H8.51211L7.64961 1.4251L7.98711 0.412598ZM5.69961 0.412598L6.03711 1.4251L5.17461 0.787598H6.22461L5.36211 1.4251L5.69961 0.412598ZM3.41211 0.412598L3.74961 1.4251L2.88711 0.787598H3.93711L3.07461 1.4251L3.41211 0.412598ZM1.12461 0.412598L1.46211 1.4251L0.599609 0.787598H1.64961L0.787109 1.4251L1.12461 0.412598Z" fill="white"/>
</g>
<defs>
<clipPath id="clip0_2730_26369">
<rect width="24" height="18" rx="2" fill="white"/>
</clipPath>
</defs>
</svg>
