<svg width="64" height="40" viewBox="0 0 64 40" fill="none" xmlns="http://www.w3.org/2000/svg">
<rect width="64" height="40" rx="8" fill="#F2F2F2"/>
<path fill-rule="evenodd" clip-rule="evenodd" d="M26 31C31.5228 31 36 26.5228 36 21C36 15.4772 31.5228 11 26 11C20.4772 11 16 15.4772 16 21C16 26.5228 20.4772 31 26 31Z" fill="#D8232A"/>
<path d="M38.7266 11C44.2494 11 48.7266 15.4772 48.7266 21C48.7266 26.5228 44.2494 31 38.7266 31C36.3091 30.9999 34.0922 30.1418 32.3633 28.7139C34.5841 26.8797 36 24.1053 36 21C36 17.8945 34.5844 15.1193 32.3633 13.2852C34.0921 11.8575 36.3093 11.0001 38.7266 11Z" fill="#ED9F2D"/>
<path d="M32.3633 13.2861C34.5843 15.1202 35.9999 17.8946 36 21C36 24.1053 34.5842 26.8797 32.3633 28.7139C30.1428 26.8797 28.7275 24.105 28.7275 21C28.7277 17.895 30.1427 15.1202 32.3633 13.2861Z" fill="#D8232A"/>
<mask id="mask0_2936_8467" style="mask-type:luminance" maskUnits="userSpaceOnUse" x="28" y="13" width="8" height="16">
<path d="M32.3633 13.2861C34.5843 15.1202 35.9999 17.8946 36 21C36 24.1053 34.5842 26.8797 32.3633 28.7139C30.1428 26.8797 28.7275 24.105 28.7275 21C28.7277 17.895 30.1427 15.1202 32.3633 13.2861Z" fill="white"/>
</mask>
<g mask="url(#mask0_2936_8467)">
<path d="M36.9092 29.1816H27.8184V28.2734H36.9092V29.1816ZM36.9092 27.3643H27.8184V26.4551H36.9092V27.3643ZM36.9092 25.5459H27.8184V24.6367H36.9092V25.5459ZM36.9092 23.7275H27.8184V22.8184H36.9092V23.7275ZM36.9092 21.9092H27.8184V21H36.9092V21.9092ZM36.9092 20.0908H27.8184V19.1816H36.9092V20.0908ZM36.9092 18.2734H27.8184V17.3643H36.9092V18.2734ZM36.9092 16.4551H27.8184V15.5459H36.9092V16.4551ZM36.9092 14.6367H27.8184V13.7275H36.9092V14.6367Z" fill="#ED9F2D"/>
</g>
</svg>
