<svg width="64" height="40" viewBox="0 0 64 40" fill="none" xmlns="http://www.w3.org/2000/svg">
<rect width="64" height="40" rx="8" fill="#F2F2F2"/>
<path fill-rule="evenodd" clip-rule="evenodd" d="M40.4526 11C40.2517 11.0006 40.0514 11.0074 39.8542 11.03C39.0828 11.1181 38.3571 11.5049 37.8359 12.1017C37.4493 12.5445 37.1808 13.0928 37.067 13.6792C37.0108 13.9686 37.0037 14.2588 37.0037 14.5521V16.4989V17.4427V17.72C37.0037 17.7942 36.9866 17.8001 37.0654 17.8001H38.2997H39.5295H40.7667C41.1706 17.8001 41.5778 17.7843 41.9805 17.8223C42.3773 17.8598 42.7812 17.9772 43.1021 18.2306C43.5534 18.5871 43.7369 19.202 43.5826 19.7676C43.4346 20.3106 42.9908 20.6747 42.4835 20.8258C42.4273 20.8426 42.3705 20.8569 42.3133 20.8692C42.2801 20.8763 42.2353 20.875 42.2051 20.8896C42.1903 20.8967 42.1524 20.9056 42.1802 20.9331C42.1871 20.9399 42.2165 20.9399 42.2381 20.9397C42.247 20.9396 42.2546 20.9396 42.2589 20.9399C42.4181 20.9558 42.5765 20.9845 42.731 21.0283C43.2033 21.1622 43.6619 21.45 43.8808 21.9225C44.1398 22.4816 44.0077 23.1742 43.5893 23.6079C43.2597 23.9496 42.7996 24.124 42.3442 24.1818C42.1159 24.2107 41.8859 24.2048 41.6563 24.2048H40.4191H39.1818H37.952H37.3333H37.1787C37.1434 24.2048 37.0437 24.1866 37.0148 24.2048C36.9979 24.2155 37.0037 24.231 37.0037 24.2592V25.4473V27.5439V29.6625V30.9166C37.0037 30.9292 36.9954 30.9841 37.0037 30.9943C37.0135 31.0062 37.0965 30.9957 37.1168 30.9957H37.2715H37.8901H39.1199H40.3572H41.5905C42.3252 30.9957 43.0248 30.7976 43.6202 30.3347C44.4278 29.7069 44.9047 28.7087 44.9088 27.6612C44.909 27.6207 44.9091 27.5801 44.9091 27.5396V27.4803C44.909 27.3906 44.9088 27.3008 44.9088 27.2111V26.1069C44.9088 25.5723 44.9088 25.0377 44.9088 24.5032C44.9088 23.8465 44.9088 23.1899 44.9088 22.5332C44.9088 21.8087 44.9088 21.084 44.9088 20.3594C44.9088 19.6096 44.9088 18.8597 44.9088 18.1099C44.9088 17.3868 44.9088 16.6638 44.9088 15.9407C44.9088 15.296 44.9088 14.6513 44.9088 14.0065C44.9088 13.4834 44.9088 12.9604 44.9088 12.4373V11.3925C44.9088 11.2649 44.9088 11.1373 44.9088 11.0097H44.8962C44.5031 11.0103 44.1098 11.0097 43.7167 11.0097H42.4835H41.2462C41.0018 11.0097 40.7533 11.0007 40.5056 11H40.4526ZM38.5506 18.8121C38.5406 18.8351 38.5506 18.886 38.5506 18.9108V19.7975V20.2119C38.5506 20.2465 38.5346 20.3654 38.5589 20.383C38.5797 20.398 38.6696 20.383 38.6963 20.383H38.8448H39.1305H39.698C39.8844 20.383 40.0711 20.3864 40.2574 20.383C40.4882 20.3788 40.7118 20.3095 40.8758 20.1397C41.0615 19.9475 41.1279 19.6649 41.0714 19.4056C41.0457 19.2908 40.996 19.1833 40.9228 19.0913C40.7823 18.9151 40.573 18.8175 40.3514 18.7994C40.2461 18.7908 40.1398 18.7948 40.0343 18.7948H39.4668H38.8882H38.6065C38.5913 18.7948 38.5811 18.7934 38.5737 18.7934C38.5625 18.7934 38.5575 18.7966 38.5506 18.8121ZM39.7698 21.4233H38.5503C38.5503 21.4396 38.5503 21.456 38.5503 21.4724V22.3592V22.8828V23.074C38.5503 23.1013 38.5394 23.1589 38.5503 23.184C38.5667 23.222 38.7182 23.2006 38.7668 23.2006H39.0754H39.6853H40.2984C40.4977 23.2006 40.6888 23.1877 40.8655 23.078C41.0801 22.9447 41.2263 22.7119 41.263 22.4525C41.3051 22.156 41.2096 21.8491 40.9966 21.6479C40.8242 21.485 40.6104 21.4251 40.3831 21.4233C40.3148 21.4227 40.2467 21.4225 40.1786 21.4225C40.0423 21.4225 39.906 21.4233 39.7698 21.4233Z" fill="url(#paint0_linear_2936_8518)"/>
<mask id="mask0_2936_8518" style="mask-type:luminance" maskUnits="userSpaceOnUse" x="37" y="11" width="8" height="20">
<path fill-rule="evenodd" clip-rule="evenodd" d="M40.4526 11C40.2517 11.0006 40.0514 11.0074 39.8542 11.03C39.0828 11.1181 38.3571 11.5049 37.8359 12.1017C37.4493 12.5445 37.1808 13.0928 37.067 13.6792C37.0108 13.9686 37.0037 14.2588 37.0037 14.5521V16.4989V17.4427V17.72C37.0037 17.7942 36.9866 17.8001 37.0654 17.8001H38.2997H39.5295H40.7667C41.1706 17.8001 41.5778 17.7843 41.9805 17.8223C42.3773 17.8598 42.7812 17.9772 43.1021 18.2306C43.5534 18.5871 43.7369 19.202 43.5826 19.7676C43.4346 20.3106 42.9908 20.6747 42.4835 20.8258C42.4273 20.8426 42.3705 20.8569 42.3133 20.8692C42.2801 20.8763 42.2353 20.875 42.2051 20.8896C42.1903 20.8967 42.1524 20.9056 42.1802 20.9331C42.1871 20.9399 42.2165 20.9399 42.2381 20.9397C42.247 20.9396 42.2546 20.9396 42.2589 20.9399C42.4181 20.9558 42.5765 20.9845 42.731 21.0283C43.2033 21.1622 43.6619 21.45 43.8808 21.9225C44.1398 22.4816 44.0077 23.1742 43.5893 23.6079C43.2597 23.9496 42.7996 24.124 42.3442 24.1818C42.1159 24.2107 41.8859 24.2048 41.6563 24.2048H40.4191H39.1818H37.952H37.3333H37.1787C37.1434 24.2048 37.0437 24.1866 37.0148 24.2048C36.9979 24.2155 37.0037 24.231 37.0037 24.2592V25.4473V27.5439V29.6625V30.9166C37.0037 30.9292 36.9954 30.9841 37.0037 30.9943C37.0135 31.0062 37.0965 30.9957 37.1168 30.9957H37.2715H37.8901H39.1199H40.3572H41.5905C42.3252 30.9957 43.0248 30.7976 43.6202 30.3347C44.4278 29.7069 44.9047 28.7087 44.9088 27.6612C44.909 27.6207 44.9091 27.5801 44.9091 27.5396V27.4803C44.909 27.3906 44.9088 27.3008 44.9088 27.2111V26.1069C44.9088 25.5723 44.9088 25.0377 44.9088 24.5032C44.9088 23.8465 44.9088 23.1899 44.9088 22.5332C44.9088 21.8087 44.9088 21.084 44.9088 20.3594C44.9088 19.6096 44.9088 18.8597 44.9088 18.1099C44.9088 17.3868 44.9088 16.6638 44.9088 15.9407C44.9088 15.296 44.9088 14.6513 44.9088 14.0065C44.9088 13.4834 44.9088 12.9604 44.9088 12.4373V11.3925C44.9088 11.2649 44.9088 11.1373 44.9088 11.0097H44.8962C44.5031 11.0103 44.1098 11.0097 43.7167 11.0097H42.4835H41.2462C41.0018 11.0097 40.7533 11.0007 40.5056 11H40.4526ZM38.5506 18.8121C38.5406 18.8351 38.5506 18.886 38.5506 18.9108V19.7975V20.2119C38.5506 20.2465 38.5346 20.3654 38.5589 20.383C38.5797 20.398 38.6696 20.383 38.6963 20.383H38.8448H39.1305H39.698C39.8844 20.383 40.0711 20.3864 40.2574 20.383C40.4882 20.3788 40.7118 20.3095 40.8758 20.1397C41.0615 19.9475 41.1279 19.6649 41.0714 19.4056C41.0457 19.2908 40.996 19.1833 40.9228 19.0913C40.7823 18.9151 40.573 18.8175 40.3514 18.7994C40.2461 18.7908 40.1398 18.7948 40.0343 18.7948H39.4668H38.8882H38.6065C38.5913 18.7948 38.5811 18.7934 38.5737 18.7934C38.5625 18.7934 38.5575 18.7966 38.5506 18.8121ZM39.7698 21.4233H38.5503C38.5503 21.4396 38.5503 21.456 38.5503 21.4724V22.3592V22.8828V23.074C38.5503 23.1013 38.5394 23.1589 38.5503 23.184C38.5667 23.222 38.7182 23.2006 38.7668 23.2006H39.0754H39.6853H40.2984C40.4977 23.2006 40.6888 23.1877 40.8655 23.078C41.0801 22.9447 41.2263 22.7119 41.263 22.4525C41.3051 22.156 41.2096 21.8491 40.9966 21.6479C40.8242 21.485 40.6104 21.4251 40.3831 21.4233C40.3148 21.4227 40.2467 21.4225 40.1786 21.4225C40.0423 21.4225 39.906 21.4233 39.7698 21.4233Z" fill="white"/>
</mask>
<g mask="url(#mask0_2936_8518)">
</g>
<path fill-rule="evenodd" clip-rule="evenodd" d="M21.7174 11.0445C21.257 11.1213 20.8152 11.3035 20.429 11.5719C19.5394 12.1907 19.007 13.2384 19.0031 14.3409C19.002 14.6651 19.0031 14.9892 19.0031 15.3135V17.3781V19.7786V21.7585V22.3561V22.5139C19.0031 22.575 19.0025 22.5622 19.0702 22.5952C19.1454 22.6319 19.221 22.6675 19.2969 22.7022C19.9032 22.9784 20.5426 23.1886 21.2025 23.2714C21.6768 23.3309 22.1834 23.3474 22.6314 23.1529C22.9902 22.997 23.2763 22.7095 23.4232 22.3366C23.5177 22.097 23.5448 21.8438 23.5448 21.5875V18.7458V18.1061V17.902C23.5448 17.8816 23.5336 17.8179 23.5448 17.8008C23.5588 17.7795 23.6697 17.7931 23.7017 17.7931H23.9434H24.42H26.3331V17.8517V20.657C26.3331 20.9863 26.3338 21.3157 26.3331 21.645C26.3325 22.0287 26.2778 22.4138 26.1251 22.7665C25.9729 23.118 25.7289 23.4148 25.4273 23.6407C24.6956 24.189 23.7262 24.3318 22.842 24.3729C22.2095 24.4024 21.5744 24.377 20.9446 24.3123C20.2937 24.2455 19.6353 24.1462 19.0031 23.971V24.1985V25.7583V28.0341V30.0898V30.7439V30.9275C19.0031 30.9372 18.9961 30.9855 19.0031 30.9934C19.0163 31.0082 19.1361 30.9935 19.1598 30.9935H19.3201H19.6481H20.2966H21.5965H22.8969C23.4482 30.9935 24.0137 31.0325 24.5525 30.8925C25.4948 30.6478 26.2954 29.9629 26.703 29.0561C26.9267 28.5584 27 28.0294 27 27.4874V26.5943V25.0897V23.1398V20.9205V18.5796V16.2918V14.2312V12.5471V11.4147V11.0003H26.6768H25.326H23.9746H22.6274C22.5673 11.0003 22.5074 11 22.4475 11C22.2032 11 21.9597 11.004 21.7174 11.0445Z" fill="url(#paint1_linear_2936_8518)"/>
<mask id="mask1_2936_8518" style="mask-type:luminance" maskUnits="userSpaceOnUse" x="19" y="11" width="8" height="20">
<path fill-rule="evenodd" clip-rule="evenodd" d="M21.7174 11.0445C21.257 11.1213 20.8152 11.3035 20.429 11.5719C19.5394 12.1907 19.007 13.2384 19.0031 14.3409C19.002 14.6651 19.0031 14.9892 19.0031 15.3135V17.3781V19.7786V21.7585V22.3561V22.5139C19.0031 22.575 19.0025 22.5622 19.0702 22.5952C19.1454 22.6319 19.221 22.6675 19.2969 22.7022C19.9032 22.9784 20.5426 23.1886 21.2025 23.2714C21.6768 23.3309 22.1834 23.3474 22.6314 23.1529C22.9902 22.997 23.2763 22.7095 23.4232 22.3366C23.5177 22.097 23.5448 21.8438 23.5448 21.5875V18.7458V18.1061V17.902C23.5448 17.8816 23.5336 17.8179 23.5448 17.8008C23.5588 17.7795 23.6697 17.7931 23.7017 17.7931H23.9434H24.42H26.3331V17.8517V20.657C26.3331 20.9863 26.3338 21.3157 26.3331 21.645C26.3325 22.0287 26.2778 22.4138 26.1251 22.7665C25.9729 23.118 25.7289 23.4148 25.4273 23.6407C24.6956 24.189 23.7262 24.3318 22.842 24.3729C22.2095 24.4024 21.5744 24.377 20.9446 24.3123C20.2937 24.2455 19.6353 24.1462 19.0031 23.971V24.1985V25.7583V28.0341V30.0898V30.7439V30.9275C19.0031 30.9372 18.9961 30.9855 19.0031 30.9934C19.0163 31.0082 19.1361 30.9935 19.1598 30.9935H19.3201H19.6481H20.2966H21.5965H22.8969C23.4482 30.9935 24.0137 31.0325 24.5525 30.8925C25.4948 30.6478 26.2954 29.9629 26.703 29.0561C26.9267 28.5584 27 28.0294 27 27.4874V26.5943V25.0897V23.1398V20.9205V18.5796V16.2918V14.2312V12.5471V11.4147V11.0003H26.6768H25.326H23.9746H22.6274C22.5673 11.0003 22.5074 11 22.4475 11C22.2032 11 21.9597 11.004 21.7174 11.0445Z" fill="white"/>
</mask>
<g mask="url(#mask1_2936_8518)">
</g>
<path fill-rule="evenodd" clip-rule="evenodd" d="M31.0042 11.0082C30.6575 11.031 30.3145 11.1119 29.9931 11.2487C29.2847 11.5507 28.6957 12.1144 28.3486 12.8216C28.1214 13.2846 28.0065 13.7993 28.0044 14.3181C28.0041 14.4021 28.0044 14.486 28.0044 14.5701V16.0421V18.659C28.026 18.6397 28.0482 18.6207 28.0707 18.6019C28.15 18.5355 28.2327 18.4734 28.3177 18.4151C28.8475 18.0529 29.4657 17.85 30.0858 17.7302C30.5907 17.6327 31.1047 17.5908 31.6177 17.5806C32.1225 17.5707 32.6287 17.5884 33.1307 17.6447C33.643 17.702 34.1521 17.7913 34.6558 17.9031C34.7176 17.9168 34.7794 17.9309 34.8411 17.9455C34.8741 17.9533 35.0006 17.964 35.0182 17.9902C35.0307 18.0089 35.0182 18.0836 35.0182 18.1052V18.3751V19.3926C34.9466 19.3553 34.8747 19.3187 34.8022 19.2833C34.2542 19.0152 33.6765 18.816 33.077 18.7182C32.2715 18.5865 31.3601 18.5901 30.6645 19.0888C29.9931 19.5702 29.7582 20.4244 29.8307 21.2367C29.9013 22.0272 30.3238 22.7049 31.035 23.021C31.7378 23.3331 32.5532 23.2911 33.2891 23.1406C33.8929 23.017 34.4685 22.7907 35.0182 22.5071V22.6076V23.7935C35.0182 23.8156 35.0309 23.8905 35.0182 23.9095C35.001 23.935 34.8726 23.9458 34.8411 23.9533C34.7126 23.9836 34.5837 24.0121 34.4545 24.0389C33.9471 24.1446 33.4343 24.2284 32.9186 24.2762C32.4138 24.323 31.9039 24.3321 31.3975 24.3124C30.8806 24.2924 30.3631 24.2372 29.8577 24.1213C29.1913 23.9686 28.528 23.7059 28.0044 23.2412V23.4596V24.9868V27.2655V29.484V30.7995C28.0044 30.815 27.9945 30.88 28.0044 30.8925C28.026 30.9196 28.2058 30.8974 28.248 30.8974H28.9044H30.2242H31.5371C32.0004 30.8974 32.4719 30.9229 32.9341 30.8888C33.7723 30.8269 34.5661 30.4169 35.1187 29.7616C35.648 29.1338 35.9091 28.3394 35.9091 27.5114V26.7688V25.3492V23.4318V21.1942V18.8238V16.4788V14.3541V12.61V11.4332V11.0015H35.6667H33.6288H31.5988C31.5029 11.0015 31.4066 11 31.3103 11C31.2081 11 31.1059 11.0017 31.0042 11.0082Z" fill="url(#paint2_linear_2936_8518)"/>
<mask id="mask2_2936_8518" style="mask-type:luminance" maskUnits="userSpaceOnUse" x="28" y="11" width="8" height="20">
<path fill-rule="evenodd" clip-rule="evenodd" d="M31.0042 11.0082C30.6575 11.031 30.3145 11.1119 29.9931 11.2487C29.2847 11.5507 28.6957 12.1144 28.3486 12.8216C28.1214 13.2846 28.0065 13.7993 28.0044 14.3181C28.0041 14.4021 28.0044 14.486 28.0044 14.5701V16.0421V18.659C28.026 18.6397 28.0482 18.6207 28.0707 18.6019C28.15 18.5355 28.2327 18.4734 28.3177 18.4151C28.8475 18.0529 29.4657 17.85 30.0858 17.7302C30.5907 17.6327 31.1047 17.5908 31.6177 17.5806C32.1225 17.5707 32.6287 17.5884 33.1307 17.6447C33.643 17.702 34.1521 17.7913 34.6558 17.9031C34.7176 17.9168 34.7794 17.9309 34.8411 17.9455C34.8741 17.9533 35.0006 17.964 35.0182 17.9902C35.0307 18.0089 35.0182 18.0836 35.0182 18.1052V18.3751V19.3926C34.9466 19.3553 34.8747 19.3187 34.8022 19.2833C34.2542 19.0152 33.6765 18.816 33.077 18.7182C32.2715 18.5865 31.3601 18.5901 30.6645 19.0888C29.9931 19.5702 29.7582 20.4244 29.8307 21.2367C29.9013 22.0272 30.3238 22.7049 31.035 23.021C31.7378 23.3331 32.5532 23.2911 33.2891 23.1406C33.8929 23.017 34.4685 22.7907 35.0182 22.5071V22.6076V23.7935C35.0182 23.8156 35.0309 23.8905 35.0182 23.9095C35.001 23.935 34.8726 23.9458 34.8411 23.9533C34.7126 23.9836 34.5837 24.0121 34.4545 24.0389C33.9471 24.1446 33.4343 24.2284 32.9186 24.2762C32.4138 24.323 31.9039 24.3321 31.3975 24.3124C30.8806 24.2924 30.3631 24.2372 29.8577 24.1213C29.1913 23.9686 28.528 23.7059 28.0044 23.2412V23.4596V24.9868V27.2655V29.484V30.7995C28.0044 30.815 27.9945 30.88 28.0044 30.8925C28.026 30.9196 28.2058 30.8974 28.248 30.8974H28.9044H30.2242H31.5371C32.0004 30.8974 32.4719 30.9229 32.9341 30.8888C33.7723 30.8269 34.5661 30.4169 35.1187 29.7616C35.648 29.1338 35.9091 28.3394 35.9091 27.5114V26.7688V25.3492V23.4318V21.1942V18.8238V16.4788V14.3541V12.61V11.4332V11.0015H35.6667H33.6288H31.5988C31.5029 11.0015 31.4066 11 31.3103 11C31.2081 11 31.1059 11.0017 31.0042 11.0082Z" fill="white"/>
</mask>
<g mask="url(#mask2_2936_8518)">
</g>
<defs>
<linearGradient id="paint0_linear_2936_8518" x1="44.9091" y1="10.135" x2="37.2674" y2="10.135" gradientUnits="userSpaceOnUse">
<stop stop-color="#43C311"/>
<stop offset="1" stop-color="#288C00"/>
</linearGradient>
<linearGradient id="paint1_linear_2936_8518" x1="19.0206" y1="31.05" x2="27.1006" y2="31.05" gradientUnits="userSpaceOnUse">
<stop stop-color="#21469E"/>
<stop offset="1" stop-color="#1E81EB"/>
</linearGradient>
<linearGradient id="paint2_linear_2936_8518" x1="35.9091" y1="11" x2="28" y2="11" gradientUnits="userSpaceOnUse">
<stop stop-color="#F42D3E"/>
<stop offset="1" stop-color="#9C0017"/>
</linearGradient>
</defs>
</svg>
