<svg width="64" height="40" viewBox="0 0 64 40" fill="none" xmlns="http://www.w3.org/2000/svg">
<rect width="64" height="40" rx="8" fill="#F2F2F2"/>
<path d="M40 24.6738C39.5363 25.7149 39.3129 26.1802 38.7165 27.099C37.8815 28.383 36.7038 29.9863 35.2489 29.9964C33.9536 30.0083 33.6193 29.1422 31.8603 29.1575C30.103 29.1659 29.7368 30.0134 28.4398 29.9998C26.9832 29.9863 25.8694 28.5427 25.0344 27.2604C22.6992 23.665 22.4522 19.4497 23.8953 17.2078C24.9168 15.6182 26.5313 14.6841 28.0483 14.6841C29.594 14.6841 30.565 15.5417 31.8418 15.5417C33.0817 15.5417 33.836 14.6824 35.6236 14.6824C36.9743 14.6824 38.4023 15.4262 39.4238 16.7102C36.0839 18.5614 36.6265 23.383 40 24.6738ZM34.2661 13.2473C34.9163 12.4032 35.4102 11.2126 35.2304 10C34.1703 10.073 32.9305 10.7575 32.2064 11.644C31.5495 12.4524 31.0052 13.6515 31.2169 14.8114C32.3744 14.8488 33.5722 14.1508 34.2661 13.2473Z" fill="#282828"/>
</svg>
