<svg width="149" height="18" viewBox="0 0 149 18" fill="none" xmlns="http://www.w3.org/2000/svg">
<g clip-path="url(#clip0_2369_7577)">
<path d="M19.3144 10.8564C19.718 8.78048 18.352 7.09961 16.272 7.09961H2.41053C2.00695 9.17552 3.37292 10.8564 5.45292 10.8564H19.3144Z" fill="#FD7F03"/>
<path d="M18.7342 13.9395H4.86498C2.78498 13.9395 0.782591 15.6203 0.394531 17.6962H14.256C16.336 17.6962 18.3384 16.0154 18.7342 13.9395Z" fill="#FD7F03"/>
<path d="M21.3436 0.244141H7.48211C5.40211 0.244141 3.39973 1.92501 3.00391 4.00092H16.8732C18.9532 4.00092 20.9555 2.32005 21.3436 0.244141Z" fill="#FD7F03"/>
<path d="M28.1638 0.259766C28.7148 0.259766 29.0718 0.693538 28.9787 1.23575L26.1536 16.8128C26.0527 17.3473 25.5327 17.7888 24.9817 17.7888H21.6676C21.1166 17.7888 20.7518 17.355 20.8527 16.8128L23.6778 1.23575C23.7787 0.701284 24.2987 0.259766 24.8497 0.259766H28.1638Z" fill="white"/>
<path d="M35.7995 8.02894L34.2084 16.8051C34.1075 17.3395 33.5875 17.7811 33.0365 17.7811H29.7458C29.1947 17.7811 28.8299 17.3473 28.9308 16.8051L31.7481 1.23575C31.849 0.701284 32.369 0.259766 32.9201 0.259766H37.1111C37.4061 0.259766 37.6622 0.383701 37.8096 0.608333L42.7768 9.41546C42.901 9.60136 43.1881 9.54714 43.227 9.338L44.6938 1.23575C44.7947 0.701284 45.3147 0.259766 45.8658 0.259766H49.1565C49.7076 0.259766 50.0723 0.693538 49.9714 1.23575L47.1541 16.8051C47.0532 17.3395 46.5332 17.7811 45.9822 17.7811H42.3499C42.055 17.7811 41.7989 17.6494 41.6514 17.4325L36.2419 7.94373C36.1255 7.76557 35.8383 7.81205 35.7995 8.02894Z" fill="white"/>
<path d="M50.8356 17.7811C50.2846 17.7811 49.9198 17.3474 50.0207 16.8051L50.5019 14.1638C50.6028 13.6293 51.1228 13.1878 51.6738 13.1878H62.6947C63.0207 13.1878 63.3389 12.9244 63.3932 12.6069L63.5407 11.778C63.6028 11.4527 63.3777 11.1971 63.0517 11.1971H55.1198C52.5431 11.1971 50.8278 9.15216 51.2857 6.62699L51.6117 4.83768C52.0696 2.3125 54.5299 0.267578 57.0989 0.267578H68.8183C69.3693 0.267578 69.7341 0.70135 69.6332 1.24357L69.1753 3.76099C69.0744 4.29546 68.5544 4.73698 68.0034 4.73698H57.2929C56.9669 4.73698 56.6487 5.00034 56.5944 5.31793L56.3926 6.41785C56.3305 6.74318 56.5556 6.9988 56.8816 6.9988H64.8057C67.3825 6.9988 69.0977 9.04372 68.6398 11.5689L68.3449 13.2033C67.8869 15.7285 65.4266 17.7734 62.8577 17.7734H62.3455H50.8356V17.7811Z" fill="white"/>
<path d="M70.3067 13.203L71.859 4.78312C72.3169 2.2657 74.7694 0.228516 77.3384 0.228516H87.0476C87.5987 0.228516 87.9634 0.662288 87.8626 1.2045L87.3969 3.79164C87.296 4.32611 86.776 4.76763 86.2249 4.76763H77.773C77.447 4.76763 77.1288 5.03099 77.0745 5.34858L75.7551 12.6143C75.693 12.9396 75.9181 13.1952 76.244 13.1952H84.696C85.247 13.1952 85.6118 13.629 85.5109 14.1712L85.0297 16.8203C84.9288 17.3548 84.4088 17.7963 83.8655 17.7963H74.133C71.5563 17.7808 69.8411 15.7281 70.3067 13.203Z" fill="white"/>
<path d="M86.03 16.5651L96.1972 1.18943C96.7172 0.492294 97.3769 0.321883 98.2694 0.283153V0.298645C98.2772 0.298645 98.2772 0.298645 98.2849 0.298645V0.283153C98.5333 0.275407 98.7972 0.275407 99.0843 0.283153H99.2163C99.3172 0.283153 99.4103 0.283153 99.5112 0.283153C99.876 0.283153 100.28 0.290899 100.745 0.290899C100.745 0.290899 101.622 0.267662 101.94 1.18943L106.962 16.5651C107.047 16.8207 106.993 17.1306 106.814 17.3784C106.644 17.6263 106.372 17.7812 106.116 17.7812H102.111C101.832 17.7812 101.607 17.6108 101.521 17.332L101.071 15.8835H92.596L92.2545 16.4102L91.5948 17.3397C91.4008 17.6108 91.0826 17.7812 90.7721 17.7812H86.5423C86.2473 17.7812 85.999 17.6263 85.8903 17.3784C85.7972 17.1306 85.8438 16.8207 86.03 16.5651ZM95.3512 11.7084H99.7984L98.3548 7.13831L95.3512 11.7084Z" fill="white"/>
<path d="M128.114 8.79558C127.656 11.3208 125.195 13.3657 122.627 13.3657L114.601 13.3734C114.493 13.3734 114.384 13.4586 114.369 13.5671L113.787 16.8049C113.686 17.3393 113.166 17.7809 112.622 17.7809H109.316C108.765 17.7809 108.4 17.3471 108.501 16.8049L111.326 1.21232C111.427 0.677846 111.947 0.236328 112.498 0.236328H125.017C127.594 0.236328 129.309 2.28125 128.851 4.80643L128.114 8.79558ZM122.673 4.62827H116.192C116.084 4.62827 115.975 4.71348 115.96 4.82192L115.238 8.78784C115.222 8.89628 115.292 8.98149 115.401 8.98149H121.881C122.37 8.98149 122.836 8.59419 122.921 8.11394L123.395 5.48807C123.488 5.02331 123.162 4.62827 122.673 4.62827Z" fill="white"/>
<path d="M128.819 16.8047L131.644 1.19669C131.745 0.662221 132.265 0.220703 132.816 0.220703H147.609C147.935 0.220703 148.16 0.484065 148.098 0.801648L147.5 4.10916C147.446 4.43449 147.128 4.69785 146.802 4.69785H136.518C136.41 4.69785 136.301 4.78306 136.285 4.8915L135.952 6.70405C135.936 6.81249 136.006 6.8977 136.115 6.8977H144.388C144.714 6.8977 144.939 7.16106 144.877 7.47864L144.326 10.515C144.272 10.8326 143.954 11.096 143.628 11.096H135.354C135.245 11.096 135.137 11.1812 135.121 11.2896L134.819 12.9783C134.803 13.0867 134.873 13.1719 134.982 13.1719H145.265C145.591 13.1719 145.816 13.4353 145.754 13.7528L145.133 17.1843C145.071 17.5019 144.761 17.7652 144.435 17.7652H129.642C129.091 17.7807 128.726 17.347 128.819 16.8047Z" fill="white"/>
</g>
<defs>
<clipPath id="clip0_2369_7577">
<rect width="148.5" height="18" fill="white"/>
</clipPath>
</defs>
</svg>
