<svg width="180" height="180" viewBox="0 0 180 180" fill="none" xmlns="http://www.w3.org/2000/svg">
<path d="M154.055 150.902C157.784 145.761 160.492 139.754 161.817 133.118C166.736 108.485 150.755 84.5281 126.123 79.6087C101.49 74.6893 77.5332 90.6703 72.6138 115.303C71.2884 121.939 71.481 128.525 72.9498 134.704L154.055 150.901V150.902Z" fill="#E2E2E2"/>
<path d="M159.434 107.281C155.374 107.583 149.623 107.235 141.873 105.133C126.663 101.007 109.96 88.4559 95.729 84.1221C85.2314 89.7561 77.0108 99.4539 73.52 111.579C78.6272 108.803 85.8284 106.143 95.1524 105.627C115.929 104.477 136.795 114.702 148.596 116.301C153.62 116.982 158.229 116.394 161.866 115.496C161.313 112.671 160.495 109.921 159.434 107.282V107.281ZM149.718 135.029C142.477 133.246 119.385 114.936 97.4534 115.879C85.1942 116.406 76.8452 118.734 71.8658 120.684C71.4866 125.481 71.879 130.201 72.9494 134.704L154.054 150.902C157.681 145.903 160.341 140.085 161.704 133.666C157.875 134.909 153.242 135.897 149.718 135.029Z" fill="#CECECE"/>
<path d="M62.3977 43.0559V43.0343C62.3965 43.0379 62.3954 43.0415 62.3948 43.0451C62.3936 43.0415 62.3923 43.0379 62.3918 43.0343V43.0559C62.1091 44.0813 61.4557 44.8145 60.4315 45.2555C61.4557 45.6965 62.1091 46.4297 62.3918 47.4551V47.4767C62.393 47.4731 62.3942 47.4695 62.3948 47.4659C62.396 47.4695 62.3971 47.4731 62.3977 47.4767V47.4551C62.6803 46.4297 63.3338 45.6965 64.358 45.2555C63.3338 44.8145 62.6803 44.0813 62.3977 43.0559ZM142.173 25.7423V25.7207C142.171 25.7243 142.17 25.7279 142.17 25.7315C142.168 25.7279 142.167 25.7243 142.167 25.7207V25.7423C141.884 26.7677 141.231 27.5009 140.206 27.9419C141.231 28.3829 141.884 29.1161 142.167 30.1415V30.1631C142.168 30.1595 142.169 30.1559 142.17 30.1523C142.171 30.1559 142.172 30.1595 142.173 30.1631V30.1415C142.455 29.1161 143.109 28.3829 144.133 27.9419C143.109 27.5009 142.455 26.7677 142.173 25.7423ZM153.22 64.2791V64.2575C153.219 64.2611 153.217 64.2647 153.217 64.2683C153.216 64.2647 153.214 64.2611 153.214 64.2575V64.2791C152.931 65.3045 152.278 66.0377 151.254 66.4787C152.278 66.9197 152.931 67.6529 153.214 68.6783V68.6999C153.215 68.6963 153.216 68.6927 153.217 68.6891C153.218 68.6927 153.219 68.6963 153.22 68.6999V68.6783C153.502 67.6529 154.156 66.9197 155.18 66.4787C154.156 66.0377 153.502 65.3045 153.22 64.2791ZM16.7767 105.641V105.619C16.7755 105.623 16.7743 105.626 16.7737 105.63C16.7725 105.626 16.7713 105.623 16.7707 105.619V105.641C16.4881 106.666 15.8347 107.399 14.8105 107.84C15.8347 108.281 16.4881 109.015 16.7707 110.04V110.062C16.7719 110.058 16.7731 110.054 16.7737 110.051C16.7749 110.054 16.7761 110.058 16.7767 110.062V110.04C17.0593 109.015 17.7127 108.281 18.7369 107.84C17.7127 107.399 17.0593 106.666 16.7767 105.641Z" fill="#BABABA"/>
<path d="M158.523 33.075V33.0312C158.521 33.039 158.519 33.0456 158.517 33.0534C158.515 33.0456 158.513 33.039 158.511 33.0312V33.075C157.946 35.1252 156.639 36.5922 154.591 37.4742C156.639 38.3562 157.945 39.8232 158.511 41.8734V41.9172C158.513 41.9094 158.515 41.9028 158.517 41.895C158.519 41.9028 158.521 41.9094 158.523 41.9172V41.8734C159.088 39.8232 160.395 38.3562 162.444 37.4742C160.395 36.5922 159.089 35.1252 158.523 33.075ZM57.3218 90.0438V90C57.32 90.0078 57.3176 90.0144 57.3158 90.0222C57.314 90.0144 57.3115 90.0078 57.3097 90V90.0438C56.7445 92.094 55.4378 93.561 53.3894 94.443C55.4378 95.325 56.7439 96.792 57.3097 98.8422V98.886C57.3115 98.8782 57.314 98.8716 57.3158 98.8638C57.3176 98.8716 57.32 98.8782 57.3218 98.886V98.8422C57.887 96.792 59.1938 95.325 61.2422 94.443C59.1938 93.561 57.8876 92.094 57.3218 90.0438ZM46.8602 23.5428V23.499C46.8584 23.5068 46.8559 23.5134 46.8541 23.5212C46.8523 23.5134 46.8499 23.5068 46.8481 23.499V23.5428C46.2829 25.593 44.9761 27.06 42.9277 27.942C44.9761 28.824 46.2823 30.291 46.8481 32.3412V32.385C46.8499 32.3772 46.8523 32.3706 46.8541 32.3628C46.8559 32.3706 46.8584 32.3772 46.8602 32.385V32.3412C47.4254 30.291 48.7322 28.824 50.7806 27.942C48.7322 27.06 47.426 25.593 46.8602 23.5428Z" fill="#F57F21"/>
<path d="M111.541 50.2843C120.769 50.2843 128.25 42.8035 128.25 33.5755C128.25 24.3475 120.769 16.8667 111.541 16.8667C102.313 16.8667 94.832 24.3475 94.832 33.5755C94.832 42.8035 102.313 50.2843 111.541 50.2843Z" fill="#E2E2E2"/>
<path d="M114.834 17.192C114.933 19.7018 114.764 22.3202 113.928 24.086C111.832 28.5104 108.572 29.9078 101.12 33.5756C98.0676 35.078 96.8185 37.8782 96.4062 40.6622C97.5931 43.193 99.3961 45.377 101.621 47.0216C102.124 44.9186 103.074 42.578 104.845 40.6196C109.27 35.729 116.023 40.3868 123.836 36.428C125.906 35.3786 127.263 33.6422 128.139 31.6562C127.312 24.4262 121.871 18.5984 114.833 17.1914L114.834 17.192Z" fill="#BABABA"/>
<path d="M33.1458 88.8C40.7945 88.8 46.995 82.5995 46.995 74.9508C46.995 67.3021 40.7945 61.1016 33.1458 61.1016C25.4971 61.1016 19.2966 67.3021 19.2966 74.9508C19.2966 82.5995 25.4971 88.8 33.1458 88.8Z" fill="#BABABA"/>
<path d="M12.1782 87.2491C10.9494 87.2491 10.2306 86.9779 9.98699 86.4247C9.63959 85.6345 10.3818 84.5011 12.2556 82.9591C13.9236 81.5863 16.4592 79.9267 19.5882 78.1585C19.7322 78.0769 19.9152 78.1279 19.9968 78.2719C20.0784 78.4159 20.0274 78.5989 19.8834 78.6805C16.7844 80.4319 14.2782 82.0717 12.6366 83.4223C10.3782 85.2805 10.458 86.0047 10.536 86.1829C10.6308 86.3989 11.4456 87.3865 18.174 85.6129C22.8774 84.3733 28.8966 82.1827 35.1222 79.4443C41.3478 76.7065 47.0304 73.7509 51.123 71.1217C56.9772 67.3615 56.8002 66.0937 56.7048 65.8777C56.6274 65.7013 56.1534 65.1577 53.3028 65.5525C51.2298 65.8399 48.3678 66.5617 45.027 67.6411C44.8692 67.6921 44.7 67.6057 44.6496 67.4479C44.5986 67.2901 44.685 67.1209 44.8428 67.0705C48.2166 65.9809 51.1134 65.2501 53.2206 64.9585C55.5894 64.6303 56.9088 64.8523 57.2538 65.6365C57.5322 66.2695 57.117 67.1131 55.9842 68.2153C54.9864 69.1861 53.46 70.3339 51.447 71.6269C47.3286 74.2723 41.6166 77.2435 35.3634 79.9939C29.1102 82.7443 23.0598 84.9457 18.3264 86.1931C16.0128 86.8027 14.1348 87.1525 12.7452 87.2317C12.5454 87.2431 12.3558 87.2491 12.1776 87.2491H12.1782Z" fill="#8C8C8C"/>
<path d="M172.498 162.136C150.531 142.337 121.445 130.285 89.544 130.285C57.6432 130.285 28.557 142.337 6.58984 162.136" fill="white"/>
<path d="M172.499 162.436C172.428 162.436 172.356 162.411 172.298 162.358C166.815 157.417 160.86 152.943 154.598 149.061C148.269 145.138 141.553 141.775 134.638 139.065C120.277 133.438 105.106 130.585 89.5449 130.585C73.9839 130.585 58.8123 133.438 44.4519 139.065C37.5363 141.775 30.8205 145.138 24.4917 149.061C18.2295 152.943 12.2745 157.416 6.79169 162.358C6.66869 162.469 6.47909 162.459 6.36809 162.336C6.25709 162.213 6.26729 162.024 6.39029 161.913C11.9001 156.947 17.8839 152.452 24.1761 148.551C30.5361 144.609 37.2843 141.229 44.2335 138.507C58.6635 132.852 73.9089 129.985 89.5455 129.985C105.182 129.985 120.427 132.852 134.857 138.507C141.807 141.229 148.555 144.609 154.915 148.551C161.207 152.451 167.191 156.947 172.701 161.913C172.824 162.024 172.834 162.213 172.723 162.336C172.663 162.402 172.582 162.435 172.5 162.435L172.499 162.436Z" fill="black"/>
<path d="M18.7365 152.489V147.433C18.7365 147.433 25.4637 140.097 33.5325 135.573C47.3865 127.806 54.4953 128.741 54.4953 128.741L64.3527 132.847C64.3527 132.847 57.8331 142.029 44.6577 148.692C35.0463 153.552 26.9205 155.409 26.9205 155.409" fill="white"/>
<path d="M26.9203 155.71C26.7835 155.71 26.6599 155.616 26.6281 155.477C26.5909 155.315 26.6923 155.155 26.8537 155.117C26.9347 155.099 35.0575 153.212 44.5225 148.425C51.2881 145.004 56.2525 140.904 59.2255 138.067C61.7701 135.64 63.3301 133.697 63.8821 132.976L54.4201 129.035C54.1507 129.008 52.3897 128.878 49.2229 129.548C43.4731 130.765 37.5967 133.639 33.6799 135.835C26.2087 140.023 19.8151 146.721 19.0375 147.551V152.488C19.0375 152.654 18.9031 152.788 18.7375 152.788C18.5719 152.788 18.4375 152.654 18.4375 152.488V147.433C18.4375 147.358 18.4657 147.285 18.5161 147.23C18.5839 147.156 25.3681 139.806 33.3865 135.311C37.3549 133.086 43.3105 130.177 49.1485 128.951C52.6669 128.212 54.4609 128.434 54.5353 128.444C54.5617 128.447 54.5869 128.454 54.6115 128.464L64.4689 132.57C64.5529 132.605 64.6165 132.677 64.6417 132.764C64.6669 132.852 64.6507 132.946 64.5979 133.021C64.5817 133.044 62.9137 135.376 59.6539 138.488C56.6497 141.356 51.6325 145.501 44.7943 148.96C35.2603 153.781 27.0697 155.683 26.9881 155.701C26.9659 155.707 26.9431 155.709 26.9209 155.709L26.9203 155.71Z" fill="black"/>
<path d="M22.8258 147.838C22.7058 147.838 22.5924 147.766 22.5462 147.648C22.4856 147.493 22.5618 147.319 22.716 147.259C22.7358 147.251 24.8364 146.421 34.8744 141.786C44.8662 137.172 48.699 133 48.7362 132.958C48.8472 132.835 49.0368 132.826 49.1598 132.936C49.2828 133.047 49.293 133.237 49.182 133.36C49.1424 133.404 48.1914 134.451 45.9756 136.087C43.9416 137.589 40.4076 139.892 35.1258 142.33C25.053 146.982 23.016 147.786 22.9344 147.817C22.8984 147.831 22.8618 147.838 22.8252 147.838L22.8258 147.838Z" fill="black"/>
<path d="M112.012 132.321C112.012 132.321 119.399 130.286 120.455 130.286C123.571 130.286 128.501 130.853 139.773 136.08C151.046 141.308 157.77 147.046 157.77 147.046L161.79 153.506C161.79 153.506 151.023 154.887 136.262 149.169C121.501 143.451 114.15 137.243 114.15 137.243" fill="white"/>
<path d="M158.611 153.954C157.507 153.954 156.139 153.911 154.538 153.781C150.379 153.443 143.813 152.416 136.155 149.449C131.935 147.814 125.622 145.076 119.515 141.318C115.855 139.066 113.976 137.489 113.957 137.473C113.831 137.366 113.815 137.177 113.922 137.051C114.029 136.924 114.218 136.908 114.345 137.015C114.364 137.03 116.218 138.586 119.845 140.817C123.193 142.876 128.777 145.948 136.372 148.891C143.963 151.831 150.467 152.848 154.587 153.184C157.965 153.458 160.327 153.333 161.281 153.255L157.541 147.245C157.003 146.795 150.338 141.311 139.648 136.353C134.582 134.003 130.439 132.421 126.98 131.513C123.848 130.691 121.849 130.586 120.456 130.586C119.623 130.586 114.136 132.049 112.093 132.611C111.933 132.655 111.767 132.562 111.724 132.402C111.68 132.242 111.773 132.077 111.933 132.033C112.693 131.824 119.39 129.986 120.456 129.986C123.863 129.986 128.837 130.678 139.901 135.809C145.742 138.518 150.34 141.365 153.168 143.276C156.236 145.349 157.949 146.804 157.966 146.819C157.989 146.839 158.009 146.863 158.026 146.888L162.046 153.349C162.1 153.436 162.106 153.544 162.062 153.636C162.018 153.728 161.93 153.792 161.829 153.805C161.757 153.814 160.622 153.955 158.611 153.955V153.954Z" fill="black"/>
<path d="M153.216 147.297C153.206 147.297 153.195 147.297 153.183 147.295C153.1 147.286 144.73 146.341 135.501 142.244C132.84 141.063 128.956 139.163 125.562 136.823C123.521 135.415 122.635 134.524 122.598 134.487C122.482 134.369 122.483 134.179 122.601 134.063C122.719 133.947 122.909 133.948 123.025 134.066C123.06 134.101 126.627 137.648 135.745 141.696C144.884 145.753 153.166 146.691 153.248 146.7C153.412 146.718 153.532 146.866 153.514 147.03C153.497 147.184 153.367 147.298 153.216 147.298V147.297Z" fill="black"/>
</svg>
