<svg width="64" height="40" viewBox="0 0 64 40" fill="none" xmlns="http://www.w3.org/2000/svg">
<rect width="64" height="40" rx="8" fill="#F2F2F2"/>
<path d="M34.5371 27C37.5793 27 39.5559 25.4415 39.5791 23.0293C39.5895 21.7043 38.8183 20.6993 37.1475 19.8701C36.1358 19.3313 35.5144 18.9743 35.5215 18.4287C35.5222 17.9455 36.0467 17.4287 37.1807 17.4287C38.1276 17.413 38.8135 17.6388 39.3477 17.875L39.6074 18.0078L40 15.4883C39.4276 15.255 38.5267 15 37.4053 15C34.5427 15 32.5275 16.5779 32.5107 18.8369C32.4926 20.5076 33.9491 21.4397 35.0469 21.9951C36.1746 22.5642 36.5532 22.9286 36.5488 23.4375C36.541 24.216 35.6488 24.5732 34.8164 24.5732C33.6572 24.5732 33.041 24.3969 32.0889 23.9629L31.7168 23.7783L31.3115 26.3809C31.9867 26.7046 33.2384 26.9852 34.5371 27ZM31.3086 15.2021H28.4131L26.6016 26.8281H29.4971L31.3086 15.2021ZM22.6807 26.8154L27.2402 15.2119H24.1729L21.3389 23.1377L21.0352 21.5264L20.0205 16.1855C19.8455 15.449 19.3367 15.2299 18.708 15.2041H14.0391L14 15.4453C15.136 15.7464 16.1518 16.1807 17.042 16.7207L19.6172 26.8174L22.6807 26.8154ZM43.0215 25.084C43.3537 25.084 46.3087 25.0898 46.7305 25.0898C46.8172 25.4956 47.083 26.832 47.083 26.832H49.7705L47.4268 15.2148H45.1895C44.4955 15.2148 43.9759 15.4201 43.6719 16.1777L39.3721 26.832H42.4131C42.4159 26.824 42.9092 25.3977 43.0215 25.084ZM45.0088 19.457C44.9919 19.4876 45.2473 18.7834 45.3936 18.3477L45.5889 19.3506C45.5972 19.392 46.1452 22.1293 46.2588 22.7061H43.8545C44.0937 22.0399 45.003 19.4734 45.0088 19.457Z" fill="#1175DA"/>
</svg>
