<svg width="64" height="40" viewBox="0 0 64 40" fill="none" xmlns="http://www.w3.org/2000/svg">
<rect width="64" height="40" rx="8" fill="#F2F2F2"/>
<path fill-rule="evenodd" clip-rule="evenodd" d="M34.6268 30.9604C40.033 30.9865 44.9674 26.5112 44.9674 21.0669C44.9674 15.1133 40.033 10.998 34.6268 11H29.9741C24.5031 10.998 20 15.1145 20 21.0669C20 26.5124 24.5031 30.9865 29.9741 30.9604H34.6268Z" fill="url(#paint0_linear_2936_8501)"/>
<path fill-rule="evenodd" clip-rule="evenodd" d="M29.9938 11.832C24.9946 11.8336 20.9436 15.9227 20.9424 20.9695C20.9436 26.0154 24.9945 30.1041 29.9938 30.1057C34.9942 30.1041 39.046 26.0154 39.0467 20.9695C39.046 15.9227 34.9942 11.8336 29.9938 11.832ZM24.2564 20.9695C24.2611 18.5034 25.7874 16.4004 27.9396 15.5647V26.373C25.7874 25.5378 24.261 23.436 24.2564 20.9695ZM32.0472 26.3754V15.5643C34.2002 16.398 35.7289 18.5022 35.7328 20.9695C35.7289 23.4376 34.2002 25.5401 32.0472 26.3754Z" fill="#F2F2F2"/>
<defs>
<linearGradient id="paint0_linear_2936_8501" x1="50.1487" y1="27.1405" x2="43.7455" y2="6.2151" gradientUnits="userSpaceOnUse">
<stop stop-color="#009BE0"/>
<stop offset="1" stop-color="#006BA8"/>
</linearGradient>
</defs>
</svg>
