<svg width="64" height="40" viewBox="0 0 64 40" fill="none" xmlns="http://www.w3.org/2000/svg">
<rect width="64" height="40" rx="8" fill="#2F9DD8"/>
<mask id="path-2-outside-1_2936_8511" maskUnits="userSpaceOnUse" x="7" y="15" width="51" height="12" fill="black">
<rect fill="white" x="7" y="15" width="51" height="12"/>
<path fill-rule="evenodd" clip-rule="evenodd" d="M14.6569 21.9076L15.9906 18.972H16.0192L17.3099 21.9076H14.6569ZM14.872 17L11 25H13.2658L14.0689 23.2185H17.8979L18.6723 25H21.0098L17.1808 17H14.872ZM21.8989 17V25H24.007V19.3866H24.0357L26.5453 25H28.2805L30.7901 19.3305H30.8188V25H32.9269V17H29.7576L27.4918 22.5014H27.4631L25.0682 17H21.8989ZM34.9059 17V25H42.6785V23.521H37.1574V21.5602H42.1192V20.1933H37.1574V18.479H42.5638V17H34.9059ZM46.7083 20.8095L43.1374 25H45.6614L47.9416 22.2325L50.1787 25H52.8604L49.2896 20.8207L52.5736 17H50.107L48.0276 19.5546L46.0199 17H43.4099L46.7083 20.8095Z"/>
</mask>
<path d="M14.6569 21.9076L12.836 21.0803L11.5515 23.9076H14.6569V21.9076ZM15.9906 18.972V16.972H14.7025L14.1697 18.1447L15.9906 18.972ZM16.0192 18.972L17.8501 18.167L17.3247 16.972H16.0192V18.972ZM17.3099 21.9076V23.9076H20.374L19.1408 21.1026L17.3099 21.9076ZM14.872 17V15H13.618L13.0718 16.1287L14.872 17ZM11 25L9.19977 24.1287L7.81007 27H11V25ZM13.2658 25V27H14.5581L15.0891 25.8219L13.2658 25ZM14.0689 23.2185V21.2185H12.7767L12.2456 22.3966L14.0689 23.2185ZM17.8979 23.2185L19.7321 22.4212L19.2093 21.2185H17.8979V23.2185ZM18.6723 25L16.8381 25.7973L17.3608 27H18.6723V25ZM21.0098 25V27H24.1843L22.8138 24.1366L21.0098 25ZM17.1808 17L18.9848 16.1366L18.4409 15H17.1808V17ZM21.8989 17V15H19.8989V17H21.8989ZM21.8989 25H19.8989V27H21.8989V25ZM24.007 25V27H26.007V25H24.007ZM24.007 19.3866V17.3866H22.007V19.3866H24.007ZM24.0357 19.3866L25.8615 18.5703L25.3323 17.3866H24.0357V19.3866ZM26.5453 25L24.7194 25.8163L25.2487 27H26.5453V25ZM28.2805 25V27H29.5824L30.1093 25.8095L28.2805 25ZM30.7901 19.3305V17.3305H29.4882L28.9613 18.521L30.7901 19.3305ZM30.8188 19.3305H32.8188V17.3305H30.8188V19.3305ZM30.8188 25H28.8188V27H30.8188V25ZM32.9269 25V27H34.9269V25H32.9269ZM32.9269 17H34.9269V15H32.9269V17ZM29.7576 17V15H28.4183L27.9083 16.2383L29.7576 17ZM27.4918 22.5014V24.5014H28.831L29.3411 23.2631L27.4918 22.5014ZM27.4631 22.5014L25.6293 23.2997L26.1524 24.5014H27.4631V22.5014ZM25.0682 17L26.902 16.2017L26.3788 15H25.0682V17ZM34.9059 17V15H32.9059V17H34.9059ZM34.9059 25H32.9059V27H34.9059V25ZM42.6785 25V27H44.6785V25H42.6785ZM42.6785 23.521H44.6785V21.521H42.6785V23.521ZM37.1574 23.521H35.1574V25.521H37.1574V23.521ZM37.1574 21.5602V19.5602H35.1574V21.5602H37.1574ZM42.1192 21.5602V23.5602H44.1192V21.5602H42.1192ZM42.1192 20.1933H44.1192V18.1933H42.1192V20.1933ZM37.1574 20.1933H35.1574V22.1933H37.1574V20.1933ZM37.1574 18.479V16.479H35.1574V18.479H37.1574ZM42.5638 18.479V20.479H44.5638V18.479H42.5638ZM42.5638 17H44.5638V15H42.5638V17ZM46.7083 20.8095L48.2305 22.1067L49.3447 20.7991L48.2203 19.5004L46.7083 20.8095ZM43.1374 25L41.6152 23.7028L38.8055 27H43.1374V25ZM45.6614 25V27H46.605L47.205 26.2718L45.6614 25ZM47.9416 22.2325L49.4969 20.9752L47.9563 19.0693L46.398 20.9607L47.9416 22.2325ZM50.1787 25L48.6233 26.2573L49.2237 27H50.1787V25ZM52.8604 25V27H57.1998L54.381 23.7008L52.8604 25ZM49.2896 20.8207L47.7729 19.5171L46.6557 20.8168L47.769 22.1199L49.2896 20.8207ZM52.5736 17L54.0903 18.3037L56.9299 15H52.5736V17ZM50.107 17V15H49.1561L48.5559 15.7374L50.107 17ZM48.0276 19.5546L46.4551 20.7905L48.0002 22.7564L49.5787 20.8172L48.0276 19.5546ZM46.0199 17L47.5924 15.7642L46.9918 15H46.0199V17ZM43.4099 17V15H39.0328L41.8979 18.3091L43.4099 17ZM14.6569 21.9076L16.4778 22.7348L17.8114 19.7993L15.9906 18.972L14.1697 18.1447L12.836 21.0803L14.6569 21.9076ZM15.9906 18.972V20.972H16.0192V18.972V16.972H15.9906V18.972ZM16.0192 18.972L14.1884 19.7769L15.479 22.7125L17.3099 21.9076L19.1408 21.1026L17.8501 18.167L16.0192 18.972ZM17.3099 21.9076V19.9076H14.6569V21.9076V23.9076H17.3099V21.9076ZM14.872 17L13.0718 16.1287L9.19977 24.1287L11 25L12.8002 25.8713L16.6722 17.8713L14.872 17ZM11 25V27H13.2658V25V23H11V25ZM13.2658 25L15.0891 25.8219L15.8922 24.0404L14.0689 23.2185L12.2456 22.3966L11.4425 24.1781L13.2658 25ZM14.0689 23.2185V25.2185H17.8979V23.2185V21.2185H14.0689V23.2185ZM17.8979 23.2185L16.0637 24.0158L16.8381 25.7973L18.6723 25L20.5065 24.2027L19.7321 22.4212L17.8979 23.2185ZM18.6723 25V27H21.0098V25V23H18.6723V25ZM21.0098 25L22.8138 24.1366L18.9848 16.1366L17.1808 17L15.3768 17.8634L19.2058 25.8634L21.0098 25ZM17.1808 17V15H14.872V17V19H17.1808V17ZM21.8989 17H19.8989V25H21.8989H23.8989V17H21.8989ZM21.8989 25V27H24.007V25V23H21.8989V25ZM24.007 25H26.007V19.3866H24.007H22.007V25H24.007ZM24.007 19.3866V21.3866H24.0357V19.3866V17.3866H24.007V19.3866ZM24.0357 19.3866L22.2098 20.2028L24.7194 25.8163L26.5453 25L28.3711 24.1837L25.8615 18.5703L24.0357 19.3866ZM26.5453 25V27H28.2805V25V23H26.5453V25ZM28.2805 25L30.1093 25.8095L32.619 20.1401L30.7901 19.3305L28.9613 18.521L26.4517 24.1905L28.2805 25ZM30.7901 19.3305V21.3305H30.8188V19.3305V17.3305H30.7901V19.3305ZM30.8188 19.3305H28.8188V25H30.8188H32.8188V19.3305H30.8188ZM30.8188 25V27H32.9269V25V23H30.8188V25ZM32.9269 25H34.9269V17H32.9269H30.9269V25H32.9269ZM32.9269 17V15H29.7576V17V19H32.9269V17ZM29.7576 17L27.9083 16.2383L25.6425 21.7397L27.4918 22.5014L29.3411 23.2631L31.6069 17.7617L29.7576 17ZM27.4918 22.5014V20.5014H27.4631V22.5014V24.5014H27.4918V22.5014ZM27.4631 22.5014L29.2969 21.7031L26.902 16.2017L25.0682 17L23.2344 17.7983L25.6293 23.2997L27.4631 22.5014ZM25.0682 17V15H21.8989V17V19H25.0682V17ZM34.9059 17H32.9059V25H34.9059H36.9059V17H34.9059ZM34.9059 25V27H42.6785V25V23H34.9059V25ZM42.6785 25H44.6785V23.521H42.6785H40.6785V25H42.6785ZM42.6785 23.521V21.521H37.1574V23.521V25.521H42.6785V23.521ZM37.1574 23.521H39.1574V21.5602H37.1574H35.1574V23.521H37.1574ZM37.1574 21.5602V23.5602H42.1192V21.5602V19.5602H37.1574V21.5602ZM42.1192 21.5602H44.1192V20.1933H42.1192H40.1192V21.5602H42.1192ZM42.1192 20.1933V18.1933H37.1574V20.1933V22.1933H42.1192V20.1933ZM37.1574 20.1933H39.1574V18.479H37.1574H35.1574V20.1933H37.1574ZM37.1574 18.479V20.479H42.5638V18.479V16.479H37.1574V18.479ZM42.5638 18.479H44.5638V17H42.5638H40.5638V18.479H42.5638ZM42.5638 17V15H34.9059V17V19H42.5638V17ZM46.7083 20.8095L45.186 19.5123L41.6152 23.7028L43.1374 25L44.6597 26.2972L48.2305 22.1067L46.7083 20.8095ZM43.1374 25V27H45.6614V25V23H43.1374V25ZM45.6614 25L47.205 26.2718L49.4851 23.5043L47.9416 22.2325L46.398 20.9607L44.1178 23.7282L45.6614 25ZM47.9416 22.2325L46.3862 23.4898L48.6233 26.2573L50.1787 25L51.7341 23.7427L49.4969 20.9752L47.9416 22.2325ZM50.1787 25V27H52.8604V25V23H50.1787V25ZM52.8604 25L54.381 23.7008L50.8101 19.5215L49.2896 20.8207L47.769 22.1199L51.3398 26.2992L52.8604 25ZM49.2896 20.8207L50.8063 22.1244L54.0903 18.3037L52.5736 17L51.0569 15.6963L47.7729 19.5171L49.2896 20.8207ZM52.5736 17V15H50.107V17V19H52.5736V17ZM50.107 17L48.5559 15.7374L46.4765 18.2921L48.0276 19.5546L49.5787 20.8172L51.6581 18.2626L50.107 17ZM48.0276 19.5546L49.6001 18.3188L47.5924 15.7642L46.0199 17L44.4474 18.2358L46.4551 20.7905L48.0276 19.5546ZM46.0199 17V15H43.4099V17V19H46.0199V17ZM43.4099 17L41.8979 18.3091L45.1962 22.1187L46.7083 20.8095L48.2203 19.5004L44.9219 15.6909L43.4099 17Z" fill="white" mask="url(#path-2-outside-1_2936_8511)"/>
</svg>
