<svg width="64" height="40" viewBox="0 0 64 40" fill="none" xmlns="http://www.w3.org/2000/svg">
<rect width="64" height="40" rx="8" fill="#F2F2F2"/>
<g clip-path="url(#clip0_2936_8535)">
<path d="M28.9672 10.6583C26.9689 11.3515 25.2456 12.6673 24.0503 14.4123C22.8551 16.1574 22.2509 18.2397 22.3267 20.3535C22.4024 22.4673 23.1539 24.5011 24.4709 26.1562C25.7879 27.8113 27.601 29.0004 29.6438 29.5489C31.2999 29.9762 33.035 29.995 34.7 29.6036C36.2083 29.2648 37.6028 28.5401 38.7469 27.5005C39.9376 26.3854 40.802 24.9668 41.2469 23.3973C41.7304 21.6905 41.8164 19.8957 41.4985 18.1505H32.1985V22.0083H37.5844C37.4768 22.6236 37.2461 23.2108 36.9062 23.7349C36.5663 24.2589 36.1242 24.7091 35.6063 25.0583C34.9487 25.4935 34.2073 25.7862 33.4297 25.9176C32.6499 26.0627 31.8501 26.0627 31.0703 25.9176C30.2799 25.7544 29.5323 25.4282 28.875 24.9598C27.819 24.2123 27.0261 23.1503 26.6094 21.9255C26.1858 20.6776 26.1858 19.3249 26.6094 18.077C26.906 17.2024 27.3963 16.406 28.0438 15.7473C28.7847 14.9797 29.7227 14.4311 30.755 14.1615C31.7872 13.8919 32.8737 13.9119 33.8953 14.2192C34.6935 14.4641 35.4233 14.8921 36.0266 15.4692C36.6339 14.865 37.2401 14.2593 37.8453 13.652C38.1578 13.3255 38.4985 13.0145 38.8063 12.6801C37.8852 11.8231 36.8042 11.1562 35.625 10.7176C33.4777 9.93794 31.1281 9.91699 28.9672 10.6583Z" fill="white"/>
<path d="M28.9676 10.6581C31.1283 9.91626 33.4779 9.93667 35.6254 10.7159C36.8048 11.1574 37.8853 11.8276 38.8051 12.6877C38.4926 13.0221 38.1629 13.3346 37.8441 13.6596C37.2379 14.2648 36.6322 14.8679 36.027 15.469C35.4237 14.8919 34.6938 14.4639 33.8957 14.219C32.8744 13.9106 31.7879 13.8895 30.7554 14.158C29.7229 14.4264 28.7843 14.9741 28.0426 15.7409C27.3951 16.3995 26.9048 17.1959 26.6082 18.0706L23.3691 15.5627C24.5285 13.2636 26.5359 11.505 28.9676 10.6581Z" fill="#E33629"/>
<path d="M22.5092 18.0469C22.6831 17.184 22.9722 16.3484 23.3686 15.5625L26.6076 18.0766C26.184 19.3244 26.184 20.6772 26.6076 21.925C25.5284 22.7583 24.4488 23.5958 23.3686 24.4375C22.3766 22.463 22.0741 20.2133 22.5092 18.0469Z" fill="#F8BD00"/>
<path d="M32.198 18.1484H41.498C41.8159 19.8937 41.7299 21.6885 41.2464 23.3953C40.8015 24.9648 39.9371 26.3834 38.7464 27.4984C37.7011 26.6828 36.6511 25.8734 35.6058 25.0578C36.124 24.7082 36.5663 24.2576 36.9063 23.733C37.2462 23.2084 37.4766 22.6205 37.5839 22.0047H32.198C32.1964 20.7203 32.198 19.4344 32.198 18.1484Z" fill="#587DBD"/>
<path d="M23.3672 24.4373C24.4474 23.604 25.5271 22.7665 26.6062 21.9248C27.0238 23.1501 27.8178 24.2121 28.875 24.9592C29.5343 25.4254 30.2836 25.7489 31.075 25.9092C31.8548 26.0542 32.6546 26.0542 33.4344 25.9092C34.2119 25.7778 34.9533 25.485 35.6109 25.0498C36.6562 25.8654 37.7063 26.6748 38.7516 27.4904C37.6076 28.5306 36.2132 29.2559 34.7047 29.5951C33.0397 29.9865 31.3046 29.9678 29.6484 29.5404C28.3386 29.1907 27.1151 28.5742 26.0547 27.7295C24.9324 26.8383 24.0157 25.7153 23.3672 24.4373Z" fill="#319F43"/>
</g>
<defs>
<clipPath id="clip0_2936_8535">
<rect width="20" height="20" fill="white" transform="translate(22 10)"/>
</clipPath>
</defs>
</svg>
