<svg width="48" height="20" viewBox="0 0 48 20" fill="none" xmlns="http://www.w3.org/2000/svg">
<g clip-path="url(#clip0_2936_8547)">
<path fill-rule="evenodd" clip-rule="evenodd" d="M47.9969 10.3309C47.9969 6.91779 46.3437 4.22461 43.1839 4.22461C40.0107 4.22461 38.0908 6.91779 38.0908 10.3043C38.0908 14.3174 40.3574 16.3439 43.6105 16.3439C45.1971 16.3439 46.397 15.984 47.3036 15.4773V12.8108C46.397 13.2641 45.3571 13.5441 44.0372 13.5441C42.7439 13.5441 41.5973 13.0908 41.4506 11.5175H47.9703C47.9703 11.3442 47.9969 10.6509 47.9969 10.3309ZM41.4106 9.06434C41.4106 7.55776 42.3306 6.93113 43.1705 6.93113C43.9838 6.93113 44.8504 7.55776 44.8504 9.06434H41.4106Z" fill="#635BFF"/>
<path fill-rule="evenodd" clip-rule="evenodd" d="M32.9453 4.22461C31.6387 4.22461 30.7987 4.83791 30.3321 5.26455L30.1588 4.43793H27.2256V19.9837L30.5587 19.2771L30.5721 15.504C31.052 15.8506 31.7587 16.3439 32.9319 16.3439C35.3185 16.3439 37.4917 14.424 37.4917 10.1976C37.4784 6.33116 35.2785 4.22461 32.9453 4.22461ZM32.1453 13.4108C31.3587 13.4108 30.892 13.1308 30.5721 12.7841L30.5587 7.83774C30.9054 7.4511 31.3854 7.18445 32.1453 7.18445C33.3586 7.18445 34.1985 8.54437 34.1985 10.2909C34.1985 12.0775 33.3719 13.4108 32.1453 13.4108Z" fill="#635BFF"/>
<path fill-rule="evenodd" clip-rule="evenodd" d="M22.6387 3.4382L25.9852 2.71824V0.0117188L22.6387 0.718346V3.4382Z" fill="#635BFF"/>
<path d="M25.9852 4.45117H22.6387V16.1172H25.9852V4.45117Z" fill="#635BFF"/>
<path fill-rule="evenodd" clip-rule="evenodd" d="M19.0521 5.4379L18.8388 4.45129H15.959V16.1173H19.2921V8.21108C20.0788 7.18447 21.412 7.37113 21.8253 7.51779V4.45129C21.3987 4.2913 19.8388 3.99798 19.0521 5.4379Z" fill="#635BFF"/>
<path fill-rule="evenodd" clip-rule="evenodd" d="M12.3856 1.55859L9.13247 2.25189L9.11914 12.9313C9.11914 14.9045 10.5991 16.3578 12.5723 16.3578C13.6656 16.3578 14.4655 16.1578 14.9055 15.9178V13.2113C14.4788 13.3846 12.3723 13.9979 12.3723 12.0247V7.29161H14.9055V4.45177H12.3723L12.3856 1.55859Z" fill="#635BFF"/>
<path fill-rule="evenodd" clip-rule="evenodd" d="M3.37315 7.83774C3.37315 7.31777 3.79979 7.11778 4.50642 7.11778C5.51969 7.11778 6.79962 7.42443 7.8129 7.97107V4.83791C6.70629 4.39793 5.61302 4.22461 4.50642 4.22461C1.7999 4.22461 0 5.63786 0 7.99773C0 11.6775 5.06639 11.0909 5.06639 12.6775C5.06639 13.2908 4.53308 13.4908 3.78646 13.4908C2.67985 13.4908 1.2666 13.0375 0.146658 12.4242V15.5973C1.38659 16.1306 2.63985 16.3573 3.78646 16.3573C6.55964 16.3573 8.4662 14.984 8.4662 12.5975C8.45286 8.62437 3.37315 9.33099 3.37315 7.83774Z" fill="#635BFF"/>
</g>
<defs>
<clipPath id="clip0_2936_8547">
<rect width="48" height="19.9776" fill="white" transform="translate(0 0.0117188)"/>
</clipPath>
</defs>
</svg>
