<svg width="149" height="18" viewBox="0 0 149 18" fill="none" xmlns="http://www.w3.org/2000/svg">
<g clip-path="url(#clip0_4029_5578)">
<path d="M19.3162 10.8554C19.7198 8.7795 18.3539 7.09863 16.2739 7.09863H2.41236C2.00878 9.17454 3.37475 10.8554 5.45475 10.8554H19.3162Z" fill="#FD7F03"/>
<path d="M18.7342 13.9385H4.86492C2.78492 13.9385 0.78253 15.6193 0.39447 17.6953H14.256C16.336 17.6953 18.3384 16.0144 18.7342 13.9385Z" fill="#FD7F03"/>
<path d="M21.342 0.243652H7.48047C5.40047 0.243652 3.39808 1.92452 3.00226 4.00043H16.8715C18.9515 4.00043 20.9539 2.31956 21.342 0.243652Z" fill="#FD7F03"/>
<path d="M28.164 0.258789C28.715 0.258789 29.0721 0.692561 28.9789 1.23478L26.1538 16.8118C26.0529 17.3463 25.533 17.7878 24.9819 17.7878H21.6679C21.1168 17.7878 20.7521 17.3541 20.853 16.8118L23.678 1.23478C23.7789 0.700307 24.2989 0.258789 24.85 0.258789H28.164Z" fill="#333333"/>
<path d="M35.801 8.02796L34.21 16.8041C34.1091 17.3386 33.5891 17.7801 33.038 17.7801H29.7473C29.1962 17.7801 28.8315 17.3463 28.9324 16.8041L31.7497 1.23478C31.8506 0.700307 32.3706 0.258789 32.9216 0.258789H37.1127C37.4076 0.258789 37.6637 0.382724 37.8112 0.607356L42.7783 9.41448C42.9025 9.60038 43.1897 9.54616 43.2285 9.33702L44.6953 1.23478C44.7962 0.700307 45.3162 0.258789 45.8673 0.258789H49.158C49.7091 0.258789 50.0739 0.692561 49.973 1.23478L47.1556 16.8041C47.0547 17.3386 46.5347 17.7801 45.9837 17.7801H42.3515C42.0565 17.7801 41.8004 17.6484 41.653 17.4315L36.2434 7.94275C36.127 7.7646 35.8398 7.81107 35.801 8.02796Z" fill="#333333"/>
<path d="M50.8344 17.7802C50.2834 17.7802 49.9186 17.3464 50.0195 16.8042L50.5007 14.1628C50.6016 13.6283 51.1216 13.1868 51.6726 13.1868H62.6935C63.0195 13.1868 63.3377 12.9235 63.3921 12.6059L63.5395 11.7771C63.6016 11.4517 63.3765 11.1961 63.0506 11.1961H55.1186C52.5419 11.1961 50.8267 9.15119 51.2846 6.62601L51.6106 4.8367C52.0685 2.31153 54.5288 0.266602 57.0977 0.266602H68.8171C69.3682 0.266602 69.7329 0.700374 69.6321 1.24259L69.1741 3.76002C69.0732 4.29449 68.5532 4.73601 68.0022 4.73601H57.2918C56.9658 4.73601 56.6476 4.99937 56.5932 5.31695L56.3915 6.41687C56.3294 6.7422 56.5544 6.99782 56.8804 6.99782H64.8046C67.3813 6.99782 69.0965 9.04274 68.6386 11.5679L68.3437 13.2023C67.8858 15.7275 65.4255 17.7724 62.8565 17.7724H62.3443H50.8344V17.7802Z" fill="#333333"/>
<path d="M70.3073 13.2025L71.8596 4.78264C72.3175 2.26521 74.77 0.228027 77.339 0.228027H87.0482C87.5993 0.228027 87.9641 0.661799 87.8632 1.20401L87.3975 3.79116C87.2966 4.32563 86.7766 4.76714 86.2256 4.76714H77.7736C77.4476 4.76714 77.1294 5.03051 77.0751 5.34809L75.7557 12.6138C75.6936 12.9391 75.9187 13.1947 76.2446 13.1947H84.6966C85.2476 13.1947 85.6124 13.6285 85.5115 14.1707L85.0303 16.8198C84.9294 17.3543 84.4094 17.7958 83.8661 17.7958H74.1336C71.5569 17.7803 69.8417 15.7276 70.3073 13.2025Z" fill="#333333"/>
<path d="M86.0315 16.5641L96.1987 1.18845C96.7187 0.491317 97.3783 0.320906 98.2709 0.282177V0.297669C98.2786 0.297669 98.2786 0.297669 98.2864 0.297669V0.282177C98.5348 0.274431 98.7986 0.274431 99.0858 0.282177H99.2177C99.3186 0.282177 99.4118 0.282177 99.5127 0.282177C99.8775 0.282177 100.281 0.289922 100.747 0.289922C100.747 0.289922 101.624 0.266685 101.942 1.18845L106.963 16.5641C107.049 16.8197 106.994 17.1296 106.816 17.3775C106.645 17.6253 106.374 17.7802 106.117 17.7802H102.113C101.833 17.7802 101.608 17.6098 101.523 17.331L101.073 15.8825H92.5975L92.256 16.4092L91.5963 17.3387C91.4022 17.6098 91.084 17.7802 90.7736 17.7802H86.5437C86.2488 17.7802 86.0004 17.6253 85.8918 17.3775C85.7986 17.1296 85.8452 16.8197 86.0315 16.5641ZM95.3527 11.7074H99.7998L98.3563 7.13733L95.3527 11.7074Z" fill="#333333"/>
<path d="M128.113 8.7951C127.655 11.3203 125.194 13.3652 122.626 13.3652L114.6 13.3729C114.492 13.3729 114.383 13.4581 114.368 13.5666L113.786 16.8044C113.685 17.3389 113.165 17.7804 112.621 17.7804H109.315C108.764 17.7804 108.399 17.3466 108.5 16.8044L111.325 1.21183C111.426 0.677358 111.946 0.23584 112.497 0.23584H125.016C127.593 0.23584 129.308 2.28077 128.85 4.80594L128.113 8.7951ZM122.672 4.62778H116.192C116.083 4.62778 115.974 4.71299 115.959 4.82143L115.237 8.78735C115.221 8.89579 115.291 8.981 115.4 8.981H121.88C122.369 8.981 122.835 8.5937 122.92 8.11345L123.394 5.48758C123.487 5.02283 123.161 4.62778 122.672 4.62778Z" fill="#333333"/>
<path d="M128.819 16.8043L131.644 1.1962C131.745 0.661733 132.265 0.220215 132.816 0.220215H147.609C147.935 0.220215 148.16 0.483577 148.098 0.80116L147.5 4.10867C147.446 4.434 147.128 4.69736 146.802 4.69736H136.518C136.409 4.69736 136.301 4.78257 136.285 4.89101L135.951 6.70356C135.936 6.812 136.006 6.89721 136.114 6.89721H144.388C144.714 6.89721 144.939 7.16057 144.877 7.47815L144.326 10.5146C144.271 10.8321 143.953 11.0955 143.627 11.0955H135.354C135.245 11.0955 135.137 11.1807 135.121 11.2892L134.818 12.9778C134.803 13.0862 134.873 13.1714 134.981 13.1714H145.265C145.591 13.1714 145.816 13.4348 145.754 13.7524L145.133 17.1838C145.071 17.5014 144.76 17.7648 144.434 17.7648H129.642C129.091 17.7802 128.726 17.3465 128.819 16.8043Z" fill="#333333"/>
</g>
<defs>
<clipPath id="clip0_4029_5578">
<rect width="148.5" height="18" fill="white"/>
</clipPath>
</defs>
</svg>
